<svg xmlns="http://www.w3.org/2000/svg" xmlns:xlink="http://www.w3.org/1999/xlink" id="Layer_1" x="0px" y="0px" viewBox="0 0 513 132" style="enable-background:new 0 0 513 132;" xml:space="preserve"><style type="text/css">	.st0{fill:#FFFFFF;}	.st1{fill:#005E85;}	.st2{fill-rule:evenodd;clip-rule:evenodd;fill:#005E85;}</style><g>	<path class="st0" d="M13.9,2.1c-6.6,0-12,5.4-12,12v103.9c0,6.6,5.4,12,12,12h105.7V2.1H13.9z"></path>	<path class="st1" d="M13.9,130.1c-6.6,0-12-5.4-12-12V14.2c0-6.6,5.4-12,12-12h105.7v128H13.9z M350.3,10.8  c-0.2-0.9-0.5-1.7-0.9-2.5c-0.3-0.6-0.6-1.2-1-1.7c-2.4-3.6-6.5-6-11.2-6H13.9c-4.6,0-8.7,2.4-11.2,6C2.4,7.2,2,7.8,1.8,8.3  C1.4,9.1,1.1,10,0.9,10.8c-0.3,1.1-0.4,2.2-0.4,3.4v103.9c0,1.6,0.3,3.2,0.8,4.6c0.1,0.4,0.3,0.8,0.5,1.2c0.5,1,1.1,1.9,1.8,2.7  c0.3,0.3,0.6,0.7,0.9,1c0.6,0.6,1.3,1.2,2,1.6c0.4,0.2,0.7,0.5,1.1,0.7c0.8,0.4,1.6,0.8,2.4,1c1.3,0.4,2.6,0.6,4,0.6h323.3  c1.4,0,2.7-0.2,4-0.6c0.8-0.3,1.6-0.6,2.4-1c0.4-0.2,0.8-0.4,1.1-0.7c0.7-0.5,1.4-1,2-1.6c0.3-0.3,0.6-0.6,0.9-1  c1.9-2.3,3.1-5.3,3.1-8.6V14.2C350.7,13,350.6,11.9,350.3,10.8z"></path>	<path class="st2" d="M52.8,43.8l-5.6,7.7c-2.8,3.8-1.9,10.7,1.9,13.4l10.3,7.5c1.8,1.3,1.9,2.5,1.1,3.9l1.5,1.1l5.2-7.2  c3.2-4.5,2.9-10.6-1.8-14.1L55,48.5c-1.2-0.9-1.4-2.2-0.7-3.6L52.8,43.8z"></path>	<path class="st2" d="M61.7,9.9l-8.7,12c-4.1,5.6-2.6,15.2,3,19.3l14.3,10.5c2.9,2.1,3.3,7.5,1.2,10.3l1.2,0.9L82.5,49  c4.4-6.2,4.2-15.4-2.8-20.4L64.5,17.5c-2.1-1.6-3.2-4.2-1.4-6.7L61.7,9.9L61.7,9.9z"></path>	<polygon class="st2" points="38.9,85.1 50.4,85.1 52.4,92.1 71.2,92.1 73.2,85.1 84.7,85.1 83.2,80 40.4,80  "></polygon>	<path class="st2" d="M39.7,116.9h-6.9v-5.8h6.9C44.8,111.1,44.5,116.9,39.7,116.9z M32.9,101.2H39c3.9,0,4,5.4,0.2,5.4h-6.4  L32.9,101.2L32.9,101.2z M44.3,108.4c2-1.2,3.3-2.9,3.3-5.3c0-4.8-3.9-6.7-8.2-6.7H27.5v25.3h11.8c5,0,10.4-2.2,9.5-8  C48.3,110.4,46.9,109.6,44.3,108.4z"></path>	<path class="st2" d="M63.3,116.9h-6.9v-5.8h6.9C68.4,111.1,68.1,116.9,63.3,116.9z M56.5,101.2h6.2c3.9,0,4,5.4,0.2,5.4h-6.4  L56.5,101.2L56.5,101.2z M67.9,108.4c2-1.2,3.3-2.9,3.3-5.3c0-4.8-3.9-6.7-8.2-6.7H51.1v25.3h11.8c5,0,10.4-2.2,9.5-8  C71.9,110.4,70.5,109.6,67.9,108.4L67.9,108.4z"></path>	<path class="st2" d="M86.9,116.9H80v-5.8h6.9C92,111.1,91.7,116.9,86.9,116.9z M80,101.2h6.2c3.9,0,4,5.4,0.2,5.4H80L80,101.2  L80,101.2z M95.9,113.7c-0.5-3.3-1.8-4.1-4.5-5.3c2-1.2,3.3-2.9,3.3-5.3c0-4.8-3.9-6.7-8.2-6.7H74.7v25.3h11.8  C91.5,121.7,96.8,119.5,95.9,113.7L95.9,113.7z"></path>	<path class="st1" d="M361.5,125c0.7,0,1.1-0.4,1.1-0.9c0-0.6-0.4-0.9-1.1-0.9h-1.4v1.8L361.5,125L361.5,125z M358.5,121.8h3.1  c1.5,0,2.6,0.7,2.6,2.2c0,1-0.6,1.7-1.4,2l1.7,2.4h-1.9l-1.4-2.1h-1v2.1h-1.6V121.8L358.5,121.8z M366.7,125.2L366.7,125.2  c0-3.1-2.4-5.6-5.6-5.6c-3.2,0-5.6,2.6-5.6,5.6v0c0,3.1,2.4,5.6,5.6,5.6C364.3,130.9,366.7,128.3,366.7,125.2L366.7,125.2z   M354.8,125.3L354.8,125.3c0-3.5,2.8-6.4,6.3-6.4c3.5,0,6.3,2.9,6.3,6.3v0c0,3.4-2.8,6.3-6.3,6.3S354.8,128.7,354.8,125.3  L354.8,125.3z"></path>	<path class="st0" d="M153.7,52.5l-2.7-6.6l-2.7,6.6H153.7z M149,40.6h4.1l8.7,20.4h-4.7l-1.9-4.5h-8.6l-1.9,4.5h-4.5L149,40.6z"></path>	<path class="st0" d="M162.1,50.9L162.1,50.9c0-5.8,4.3-10.5,10.6-10.5c3.8,0,6.1,1.3,8,3.1l-2.8,3.3c-1.6-1.4-3.2-2.3-5.2-2.3  c-3.4,0-5.9,2.8-5.9,6.3v0.1c0,3.5,2.4,6.4,5.9,6.4c2.3,0,3.7-0.9,5.3-2.4l2.8,2.9c-2.1,2.2-4.4,3.6-8.3,3.6  C166.5,61.3,162.1,56.7,162.1,50.9z"></path>	<path class="st0" d="M182.3,50.9L182.3,50.9c0-5.8,4.3-10.5,10.6-10.5c3.8,0,6.1,1.3,8,3.1l-2.8,3.3c-1.6-1.4-3.2-2.3-5.2-2.3  c-3.4,0-5.9,2.8-5.9,6.3v0.1c0,3.5,2.4,6.4,5.9,6.4c2.3,0,3.7-0.9,5.3-2.4l2.8,2.9c-2.1,2.2-4.4,3.6-8.3,3.6  C186.7,61.3,182.3,56.7,182.3,50.9z"></path>	<path class="st0" d="M212.9,50.5c2.2,0,3.4-1.2,3.4-2.9v-0.1c0-1.9-1.3-2.9-3.5-2.9h-4.4v5.8H212.9z M203.9,40.7h9.3  c2.6,0,4.6,0.7,5.9,2.1c1.1,1.1,1.7,2.7,1.7,4.6v0.1c0,3.3-1.8,5.3-4.3,6.3l4.9,7.2h-5.2l-4.3-6.5h-3.5V61h-4.5V40.7z"></path>	<polygon class="st0" points="224.3,40.7 239.5,40.7 239.5,44.7 228.7,44.7 228.7,48.8 238.2,48.8 238.2,52.7 228.7,52.7 228.7,57   239.7,57 239.7,61 224.3,61  "></polygon>	<path class="st0" d="M247.5,44.7v12.2h3.4c3.6,0,6.1-2.5,6.1-6v-0.1c0-3.6-2.5-6.1-6.1-6.1H247.5z M243.1,40.7h7.9  c6.4,0,10.8,4.4,10.8,10.1v0.1c0,5.7-4.4,10.1-10.8,10.1h-7.9V40.7z"></path>	<rect x="265.3" y="40.7" class="st0" width="4.5" height="20.2"></rect>	<polygon class="st0" points="278.9,44.8 272.8,44.8 272.8,40.7 289.6,40.7 289.6,44.8 283.4,44.8 283.4,61 278.9,61  "></polygon>	<polygon class="st0" points="292.4,40.7 307.6,40.7 307.6,44.7 296.8,44.7 296.8,48.8 306.3,48.8 306.3,52.7 296.8,52.7 296.8,57   307.8,57 307.8,61 292.4,61  "></polygon>	<path class="st0" d="M315.6,44.7v12.2h3.4c3.6,0,6.1-2.5,6.1-6v-0.1c0-3.6-2.5-6.1-6.1-6.1H315.6z M311.2,40.7h7.9  c6.4,0,10.8,4.4,10.8,10.1v0.1c0,5.7-4.4,10.1-10.8,10.1h-7.9V40.7z"></path>	<path class="st0" d="M151.5,84.9h-5.1v4.5h5.3c2,0,3.2-0.7,3.2-2.2v-0.1C154.8,85.7,153.8,84.9,151.5,84.9z M153.7,79  c0-1.3-1-2.1-2.9-2.1h-4.4v4.3h4.1C152.5,81.2,153.7,80.6,153.7,79L153.7,79z M142,73h9.4c2.3,0,4.1,0.6,5.3,1.8  c0.9,0.9,1.4,2.1,1.4,3.4v0.1c0,2.3-1.2,3.6-2.7,4.4c2.3,0.9,3.8,2.3,3.8,5v0.1c0,3.7-3,5.6-7.6,5.6H142V73z"></path>	<path class="st0" d="M162,84.6V73h4.5v11.4c0,3.3,1.6,5,4.4,5c2.7,0,4.4-1.6,4.4-4.9V73h4.5v11.4c0,6.1-3.4,9.1-8.9,9.1  C165.3,93.6,162,90.5,162,84.6z"></path>	<path class="st0" d="M182.2,90.3l2.6-3.2c1.8,1.5,3.7,2.5,6,2.5c1.8,0,2.9-0.7,2.9-1.9v-0.1c0-1.1-0.7-1.7-4.1-2.6  c-4.1-1-6.7-2.2-6.7-6.2v-0.1c0-3.7,2.9-6.1,7.1-6.1c2.9,0,5.5,0.9,7.5,2.6l-2.3,3.4c-1.8-1.2-3.6-2-5.3-2c-1.7,0-2.6,0.8-2.6,1.8  v0.1c0,1.3,0.9,1.8,4.4,2.7c4.1,1.1,6.4,2.5,6.4,6.1v0.1c0,4-3.1,6.3-7.4,6.3C187.8,93.5,184.7,92.5,182.2,90.3z"></path>	<rect x="201.7" y="73" class="st0" width="4.5" height="20.2"></rect>	<polygon class="st0" points="210.7,73 214.8,73 224.3,85.5 224.3,73 228.7,73 228.7,93.2 224.9,93.2 215.1,80.4 215.1,93.2   210.7,93.2  "></polygon>	<polygon class="st0" points="232.9,73 248.2,73 248.2,77 237.4,77 237.4,81.1 246.9,81.1 246.9,85 237.4,85 237.4,89.3 248.4,89.3   248.4,93.2 232.9,93.2  "></polygon>	<path class="st0" d="M250.3,90.3l2.6-3.2c1.8,1.5,3.7,2.5,6,2.5c1.8,0,2.9-0.7,2.9-1.9v-0.1c0-1.1-0.7-1.7-4.1-2.6  c-4.1-1-6.7-2.2-6.7-6.2v-0.1c0-3.7,2.9-6.1,7.1-6.1c2.9,0,5.5,0.9,7.5,2.6l-2.3,3.4c-1.8-1.2-3.6-2-5.3-2c-1.7,0-2.6,0.8-2.6,1.8  v0.1c0,1.3,0.9,1.8,4.4,2.7c4.1,1.1,6.4,2.5,6.4,6.1v0.1c0,4-3.1,6.3-7.4,6.3C255.9,93.5,252.8,92.5,250.3,90.3z"></path>	<path class="st0" d="M268,90.3l2.6-3.2c1.8,1.5,3.7,2.5,6,2.5c1.8,0,2.9-0.7,2.9-1.9v-0.1c0-1.1-0.7-1.7-4.1-2.6  c-4.1-1-6.7-2.2-6.7-6.2v-0.1c0-3.7,2.9-6.1,7.1-6.1c2.9,0,5.5,0.9,7.5,2.6l-2.3,3.4c-1.8-1.2-3.6-2-5.3-2c-1.7,0-2.6,0.8-2.6,1.8  v0.1c0,1.3,0.9,1.8,4.4,2.7c4.1,1.1,6.4,2.5,6.4,6.1v0.1c0,4-3.1,6.3-7.4,6.3C273.5,93.5,270.4,92.5,268,90.3z"></path>			<ellipse transform="matrix(1.281732e-02 -0.9999 0.9999 1.281732e-02 374.7182 511.8117)" class="st1" cx="446.6" cy="66.1" rx="65.4" ry="65.4"></ellipse>	<path class="st0" d="M434.3,68.5c-3.6-11.7-5.7-18.4-6.2-19.9c-0.4-1.5-0.8-2.8-1-3.6c-0.8,3.2-3.2,11-7,23.5H434.3z M441,91.1  l-3.9-12.9h-19.8l-3.9,12.9h-12.4l19.2-54.6h14.1l19.3,54.6H441z"></path>	<polygon class="st0" points="471.1,68.4 456.8,68.4 456.8,60.2 471.1,60.2 471.1,45.7 479.3,45.7 479.3,60.2 493.7,60.2   493.7,68.4 479.3,68.4 479.3,82.7 471.1,82.7  "></polygon></g></svg>