<svg xmlns="http://www.w3.org/2000/svg" xmlns:xlink="http://www.w3.org/1999/xlink" id="Layer_1" x="0px" y="0px" viewBox="0 0 512 225.8" style="enable-background:new 0 0 512 225.8;" xml:space="preserve"><style type="text/css">	.st0{fill:#EE7508;}	.st1{fill:#EA4335;}	.st2{fill:#FBBC05;}	.st3{fill:#4285F4;}	.st4{fill:#34A853;}</style><polygon class="st0" points="196.9,209.3 215.2,220.3 210.3,199.6 226.5,185.6 205.2,183.8 196.9,164.2 188.6,183.8 167.4,185.6  183.5,199.6 178.7,220.3 "></polygon><polygon class="st0" points="267.8,209.3 286.1,220.3 281.2,199.6 297.3,185.6 276.1,183.8 267.8,164.2 259.5,183.8 238.3,185.6  254.4,199.6 249.6,220.3 "></polygon><polygon class="st0" points="338.7,209.3 357,220.3 352.1,199.6 368.3,185.6 347,183.8 338.7,164.2 330.4,183.8 309.2,185.6  325.3,199.6 320.5,220.3 "></polygon><polygon class="st0" points="409.6,209.3 427.9,220.3 423,199.6 439.2,185.6 417.9,183.8 409.6,164.2 401.3,183.8 380.1,185.6  396.2,199.6 391.4,220.3 "></polygon><polygon class="st0" points="480.5,209.3 498.8,220.3 493.9,199.6 510,185.6 488.8,183.8 480.5,164.2 472.2,183.8 451,185.6  467.1,199.6 462.2,220.3 "></polygon><path class="st0" d="M85.5,193.5c0,5.3,0.3,9.6,1,13.2c0.7,3.5,1.9,6.2,3.5,7.9c1.6,1.7,3.8,2.6,6.5,2.6s4.9-0.9,6.5-2.6 s2.8-4.4,3.5-7.9s1.1-7.9,1.1-13.2c0-5.2-0.4-9.6-1.1-13.1s-1.9-6.2-3.5-7.9c-1.6-1.8-3.8-2.7-6.5-2.7s-4.9,0.9-6.5,2.7 c-1.6,1.8-2.7,4.4-3.5,7.9C85.9,183.9,85.5,188.3,85.5,193.5z M117.7,193.5c0,5-0.4,9.5-1.2,13.5c-0.8,3.9-2,7.3-3.7,10.1 s-3.9,4.9-6.6,6.3s-6,2.2-9.8,2.2c-4.8,0-8.8-1.3-11.9-3.8c-3.1-2.6-5.4-6.2-6.9-11s-2.3-10.6-2.3-17.3c0-6.7,0.7-12.4,2-17.2 c1.4-4.8,3.6-8.5,6.7-11c3.1-2.6,7.2-3.8,12.3-3.8c4.8,0,8.8,1.3,11.9,3.8c3.2,2.5,5.5,6.2,7,11C117,181,117.7,186.8,117.7,193.5z  M53.4,219.4c0-2.3,0.6-4,1.8-4.9c1.2-1,2.7-1.4,4.4-1.4s3.2,0.5,4.4,1.4s1.9,2.6,1.9,4.9s-0.6,3.9-1.9,4.9c-1.2,1-2.7,1.5-4.4,1.5 s-3.2-0.5-4.4-1.5C54,223.3,53.4,221.7,53.4,219.4z M22.8,185.8c4,0,7.5,0.7,10.6,2.2c3.1,1.4,5.5,3.5,7.2,6.3 c1.7,2.8,2.6,6.1,2.6,10.1c0,4.4-0.9,8.2-2.8,11.3c-1.8,3.2-4.6,5.6-8.1,7.3c-3.6,1.7-7.9,2.6-13.1,2.6c-3.3,0-6.3-0.3-9.2-0.9 c-2.8-0.6-5.2-1.4-7.3-2.6v-9c2.1,1.2,4.7,2.2,7.7,2.9c3,0.7,5.8,1.1,8.6,1.1c2.9,0,5.4-0.4,7.5-1.3s3.7-2.2,4.8-3.9 c1.1-1.8,1.7-4,1.7-6.7c0-3.6-1.2-6.3-3.5-8.3s-5.8-2.9-10.7-2.9c-1.7,0-3.5,0.2-5.5,0.5c-1.9,0.3-3.5,0.6-4.8,0.9l-4.4-2.6 l2.3-30.5h32.4v8.8H15.3l-1.4,15.5c1-0.2,2.2-0.4,3.7-0.6C19,185.9,20.7,185.8,22.8,185.8z"></path><path class="st1" d="M204.9,81.8c0-13.1-9.5-22.1-20.6-22.1s-20.6,9-20.6,22.1c0,13,9.5,22.1,20.6,22.1S204.9,94.7,204.9,81.8z  M220.9,81.8c0,21-16.4,36.5-36.6,36.5s-36.6-15.5-36.6-36.5c0-21.1,16.4-36.5,36.6-36.5C204.5,45.3,220.9,60.6,220.9,81.8z"></path><path class="st2" d="M283.8,81.8c0-13.1-9.5-22.1-20.6-22.1c-11,0-20.6,9-20.6,22.1c0,13,9.5,22.1,20.6,22.1S283.8,94.7,283.8,81.8z  M299.8,81.8c0,21-16.4,36.5-36.6,36.5s-36.6-15.5-36.6-36.5c0-21.1,16.4-36.5,36.6-36.5S299.8,60.6,299.8,81.8z"></path><path class="st3" d="M361.3,81.9c0-12.8-8.6-22.2-19.5-22.2c-11,0-20.3,9.4-20.3,22.2c0,12.7,9.3,22,20.3,22S361.3,94.6,361.3,81.9z  M375.4,47.5V113c0,26.9-15.9,37.9-34.7,37.9c-17.7,0-28.3-11.8-32.3-21.5l13.9-5.8c2.5,5.9,8.6,12.9,18.4,12.9 c12,0,19.5-7.4,19.5-21.4v-5.2h-0.6c-3.6,4.4-10.5,8.3-19.2,8.3c-18.2,0-34.9-15.9-34.9-36.3c0-20.6,16.7-36.6,34.9-36.6 c8.7,0,15.6,3.9,19.2,8.2h0.6v-5.9L375.4,47.5L375.4,47.5z"></path><rect x="384.9" y="9.1" class="st4" width="15.6" height="106.9"></rect><path class="st1" d="M423.1,80.6l32.6-13.5c-1.8-4.6-7.2-7.7-13.5-7.7C434,59.4,422.7,66.6,423.1,80.6z M461.4,93.8l12.4,8.3 c-4,5.9-13.7,16.2-30.4,16.2c-20.7,0-36.2-16-36.2-36.5c0-21.7,15.6-36.5,34.4-36.5c18.9,0,28.2,15.1,31.2,23.2l1.7,4.1l-48.8,20.2 c3.7,7.3,9.5,11,17.7,11C451.6,103.8,457.2,99.8,461.4,93.8z"></path><path class="st3" d="M88.6,72.3V56.8h52.1c0.5,2.7,0.8,5.9,0.8,9.3c0,11.6-3.2,26-13.4,36.2c-9.9,10.4-22.7,15.9-39.5,15.9 c-31.2,0-57.4-25.4-57.4-56.6S57.4,4.9,88.6,4.9c17.3,0,29.6,6.8,38.8,15.6l-10.9,10.9c-6.6-6.2-15.6-11-27.9-11 C65.8,20.4,48,38.8,48,61.6s17.8,41.2,40.6,41.2c14.8,0,23.2-5.9,28.6-11.3c4.4-4.4,7.3-10.6,8.4-19.2H88.6z"></path></svg>