<svg xmlns="http://www.w3.org/2000/svg" xmlns:xlink="http://www.w3.org/1999/xlink" id="Layer_1" x="0px" y="0px" viewBox="0 0 180 31" style="enable-background:new 0 0 180 31;" xml:space="preserve"><style type="text/css">	.st0{clip-path:url(#SVGID_00000057831918459279328770000011080566870415902363_);}	.st1{fill:#323956;}	.st2{fill:#F64E00;}</style><g>	<defs>		<rect id="SVGID_1_" x="0.96" y="1.23" width="178" height="29"></rect>	</defs>	<clipPath id="SVGID_00000088817895581778719100000006103237920059092123_">		<use xlink:href="#SVGID_1_" style="overflow:visible;"></use>	</clipPath>	<g style="clip-path:url(#SVGID_00000088817895581778719100000006103237920059092123_);">		<path class="st1" d="M11.68,9.45l1.96,1.27l-0.75,7.29l10.54-6.62c-0.19-1.56-0.69-3.06-1.47-4.42c-0.78-1.35-1.82-2.53-3.06-3.45   c-1.24-0.92-2.65-1.57-4.14-1.91c-1.49-0.34-3.04-0.36-4.53-0.06c-1.5,0.3-2.92,0.92-4.18,1.81C4.8,4.26,3.73,5.41,2.92,6.74   s-1.34,2.82-1.57,4.38c-0.23,1.56-0.14,3.14,0.26,4.66L11.68,9.45z"></path>		<path class="st1" d="M12,21.69l-1.96-1.27l0.75-7.29l-8.25,5.18c1.1,2.15,2.84,3.89,4.96,4.96c2.12,1.07,4.52,1.42,6.85,0.99   c2.33-0.43,4.46-1.6,6.1-3.36c1.64-1.76,2.69-4,3-6.41L12,21.69z"></path>		<path class="st2" d="M12.98,8.4c0.87,0,1.58-0.73,1.58-1.62c0-0.9-0.71-1.62-1.58-1.62c-0.87,0-1.58,0.73-1.58,1.62   C11.4,7.68,12.11,8.4,12.98,8.4z"></path>		<path d="M29.1,23.54l2.77-0.04V3.36L29.1,3.4V23.54z M42.34,9.55c-1.24,0-3.35,0.57-4.28,2.11V9.83h-2.61v13.7h2.61v-7.42   c0-2.7,1.98-3.91,3.94-3.91c1.86,0,3.1,1.43,3.1,3.57v7.76h2.61v-7.91c0-1.95-0.52-3.54-1.55-4.6   C45.23,10.06,43.91,9.55,42.34,9.55z M55.57,20.01l-4-10.18h-2.8l5.53,13.7h2.5l5.56-13.7h-2.82L55.57,20.01z M104.33,9.55   c-4.02,0-6.95,2.98-6.95,7.1c0,4.11,2.99,7.18,6.95,7.18c0.92,0.02,1.84-0.15,2.7-0.5c0.86-0.35,1.64-0.88,2.29-1.55   c0.65-0.67,1.17-1.47,1.51-2.36c0.34-0.88,0.51-1.83,0.49-2.78C111.31,12.53,108.38,9.55,104.33,9.55z M104.33,21.28   c-2.44,0-4.3-2-4.3-4.64c0-2.6,1.86-4.55,4.31-4.55c0.58-0.01,1.16,0.1,1.69,0.33c0.54,0.23,1.02,0.56,1.43,0.99   c0.41,0.43,0.73,0.93,0.94,1.49c0.21,0.56,0.31,1.15,0.3,1.75C108.69,19.29,106.81,21.28,104.33,21.28z M120.33,9.55   c-1.93,0-3.69,0.86-4.59,2.23V9.83h-2.61v20.28h2.61v-8.49c0.89,1.38,2.59,2.19,4.62,2.19c3.85,0,6.64-3,6.64-7.13   S124.19,9.55,120.33,9.55z M120.1,21.28c-0.58,0-1.15-0.12-1.69-0.34c-0.53-0.23-1.02-0.57-1.42-0.99   c-0.41-0.42-0.73-0.93-0.94-1.48c-0.22-0.55-0.32-1.14-0.31-1.74c0-2.65,1.88-4.64,4.36-4.64c2.39,0,4.25,2.04,4.25,4.64   S122.53,21.28,120.1,21.28z M154.25,11.75c-0.89-1.38-2.59-2.19-4.62-2.19c-3.85,0-6.64,3-6.64,7.13s2.81,7.15,6.67,7.15   c1.93,0,3.69-0.86,4.59-2.23v1.93h2.61V2.45h-2.61V11.75z M149.87,21.28c-2.37,0-4.23-2.04-4.23-4.64c0-2.6,1.81-4.55,4.23-4.55   c0.58,0,1.16,0.11,1.69,0.34c0.54,0.23,1.02,0.56,1.43,0.99c0.41,0.42,0.73,0.93,0.95,1.48c0.22,0.55,0.33,1.15,0.32,1.74   C154.25,18.89,152.71,21.28,149.87,21.28z M160.17,9.84h2.61v13.7h-2.61V9.84z M178.76,9.83h-2.61v1.59   c-0.93-1.19-2.53-1.89-4.4-1.89h-0.21c-3.85,0-6.64,3-6.64,7.13s2.8,7.15,6.67,7.15h0.22c1.78,0,3.42-0.74,4.37-1.91v1.63h2.81   V9.83H178.76z M171.86,21.27c-2.32-0.06-4.12-2.07-4.12-4.63c0-2.56,1.76-4.49,4.12-4.55c2.4,0.04,4.31,2.08,4.28,4.55   C176.15,18.86,174.63,21.21,171.86,21.27L171.86,21.27z M82.48,15.16c-1.37-0.36-2.33-0.68-2.33-1.56c0-0.98,0.97-1.67,2.35-1.67   c1.01,0.02,1.98,0.38,2.76,1.03l0.07,0.05l1.4-2l-0.06-0.05c-1.24-0.99-2.77-1.51-4.33-1.47c-2.36,0-4.89,1.34-4.89,4.26   c0,2.04,1.65,3.03,3.04,3.51c0.46,0.16,0.93,0.28,1.4,0.4c1.45,0.38,2.7,0.71,2.7,1.87c0,0.81-0.8,1.67-2.27,1.67   c-1.4-0.04-2.74-0.55-3.83-1.46l-0.07-0.05l-1.4,2.06l0.06,0.05c1.5,1.23,3.37,1.88,5.29,1.85c2.38,0,4.92-1.46,4.92-4.17   C87.29,16.76,84.86,15.79,82.48,15.16z M141.29,16.45c0-4.09-2.57-6.94-6.28-6.94c-3.76,0-6.48,2.92-6.48,6.94   c-0.03,0.96,0.14,1.92,0.48,2.82c0.34,0.9,0.85,1.72,1.51,2.41c1.17,1.17,2.74,1.82,4.37,1.81h0.12c2.3-0.04,3.8-0.43,5.62-2.46   l0.06-0.06l-1.81-1.78l-0.06,0.06c-0.46,0.55-1.03,1-1.67,1.29s-1.35,0.45-2.05,0.43c-2.02,0-3.61-1.52-3.98-3.8l10.08-0.02h0.07   v-0.08c0.01-0.12,0.01-0.25,0-0.37C141.29,16.66,141.29,16.59,141.29,16.45z M131.52,15.07c0.34-1.98,1.6-3.07,3.56-3.07   c1.89,0,3.18,1.14,3.46,3.07H131.52z M75.57,16.45c0-4.09-2.58-6.94-6.27-6.94c-3.76,0-6.48,2.92-6.48,6.94   c-0.03,0.96,0.14,1.92,0.48,2.82c0.34,0.9,0.85,1.72,1.51,2.41c1.17,1.17,2.74,1.82,4.37,1.81h0.12c2.3-0.04,3.8-0.43,5.63-2.46   l0.06-0.06l-1.81-1.78l-0.06,0.06c-0.46,0.55-1.03,1-1.68,1.3s-1.35,0.45-2.06,0.43c-2.02,0-3.61-1.52-3.98-3.8l10.08-0.02h0.08   v-0.08c0.01-0.12,0.01-0.25,0-0.37C75.57,16.66,75.57,16.59,75.57,16.45z M65.79,15.07c0.35-1.98,1.61-3.07,3.56-3.07   c1.89,0,3.18,1.14,3.46,3.07H65.79z M95.85,20.69c-0.36,0.1-0.73,0.14-1.1,0.14c-0.3,0.01-0.6-0.04-0.87-0.14   c-0.28-0.11-0.53-0.28-0.74-0.49c-0.28-0.34-0.34-0.87-0.34-1.56v-6.46h3.71V9.83h-3.71V5.4h-2.62v4.44h-1.44v2.34h1.44v6.32   c0,1.52,0.33,2.64,1,3.42c0.44,0.5,0.98,0.9,1.59,1.16c0.61,0.26,1.26,0.38,1.91,0.35c0.66,0.01,1.31-0.09,1.94-0.27l0.08-0.03   l-0.76-2.45L95.85,20.69z M161.47,3.27c-0.22,0-0.44,0.04-0.65,0.13c-0.2,0.09-0.39,0.22-0.55,0.38   c-0.15,0.16-0.28,0.36-0.36,0.57c-0.08,0.21-0.12,0.44-0.12,0.67c0,0.23,0.04,0.45,0.12,0.66c0.08,0.21,0.21,0.4,0.36,0.56   c0.16,0.16,0.34,0.29,0.55,0.37c0.2,0.09,0.42,0.13,0.64,0.12c0.22,0.01,0.44-0.04,0.65-0.12c0.21-0.08,0.39-0.21,0.55-0.37   c0.16-0.16,0.28-0.35,0.37-0.56c0.09-0.21,0.13-0.44,0.13-0.67c0-0.23-0.04-0.46-0.13-0.67c-0.09-0.21-0.21-0.41-0.37-0.57   c-0.16-0.16-0.35-0.29-0.55-0.38C161.92,3.31,161.7,3.27,161.47,3.27z"></path>	</g></g></svg>