<svg xmlns="http://www.w3.org/2000/svg" xmlns:xlink="http://www.w3.org/1999/xlink" id="Layer_1" x="0px" y="0px" viewBox="0 0 147 34" style="enable-background:new 0 0 147 34;" xml:space="preserve"><style type="text/css">	.st0{fill:none;stroke:#254883;stroke-width:1.3083;}	.st1{fill:#254883;}	.st2{fill-rule:evenodd;clip-rule:evenodd;fill:#5C9055;stroke:#FFFFFF;stroke-width:0.1869;}	.st3{fill:#093E8A;}</style><circle class="st0" cx="16.24" cy="16.92" r="15.35"></circle><path class="st1" d="M15.8,26.79V6.77h1.28v20.02H15.8z M19.5,13.17c-0.07-0.68-0.38-1.21-0.92-1.6c-0.54-0.38-1.24-0.57-2.1-0.57 c-0.6,0-1.12,0.09-1.56,0.27c-0.43,0.18-0.76,0.43-0.99,0.74s-0.35,0.67-0.35,1.07c0,0.33,0.08,0.62,0.23,0.87 c0.16,0.24,0.37,0.45,0.63,0.63c0.27,0.17,0.56,0.31,0.88,0.42c0.32,0.11,0.65,0.21,0.98,0.29l1.5,0.38 c0.6,0.14,1.19,0.33,1.74,0.57c0.56,0.24,1.07,0.54,1.51,0.91c0.45,0.36,0.8,0.81,1.06,1.32c0.26,0.52,0.39,1.12,0.39,1.81 c0,0.94-0.24,1.76-0.72,2.48c-0.48,0.71-1.17,1.26-2.08,1.67c-0.9,0.4-1.99,0.59-3.28,0.59c-1.25,0-2.33-0.19-3.25-0.58 c-0.91-0.39-1.63-0.95-2.14-1.69c-0.51-0.74-0.79-1.64-0.83-2.71h2.85c0.04,0.56,0.21,1.02,0.52,1.39c0.3,0.37,0.7,0.65,1.18,0.83 c0.49,0.18,1.04,0.27,1.64,0.27c0.63,0,1.18-0.09,1.66-0.28c0.48-0.19,0.85-0.46,1.13-0.8c0.27-0.34,0.41-0.75,0.41-1.2 c-0.01-0.42-0.13-0.76-0.37-1.03c-0.24-0.28-0.58-0.51-1.01-0.69c-0.43-0.19-0.93-0.35-1.5-0.5l-1.82-0.47 c-1.32-0.34-2.36-0.85-3.13-1.54c-0.76-0.69-1.14-1.61-1.14-2.76c0-0.94,0.26-1.77,0.77-2.48c0.52-0.71,1.22-1.26,2.1-1.65 c0.89-0.4,1.89-0.59,3.01-0.59c1.14,0,2.13,0.2,2.99,0.59c0.86,0.39,1.54,0.94,2.03,1.63c0.49,0.69,0.74,1.49,0.76,2.39H19.5z"></path><path class="st2" d="M39.01,20.52l-10.78,9.83l-6.09-6.09l1.95-1.95l4.23,4.23l8.84-8.06L39.01,20.52z"></path><path class="st3" d="M43.72,12.92L41.66,6.2H41.6c0.01,0.16,0.02,0.4,0.04,0.73c0.02,0.32,0.04,0.66,0.05,1.03 c0.02,0.36,0.02,0.69,0.02,0.98v3.98h-1.62V4.35h2.47l2.03,6.55h0.04l2.15-6.55h2.47v8.57h-1.69V8.86c0-0.27,0-0.58,0.01-0.93 c0.01-0.35,0.03-0.69,0.04-1c0.02-0.32,0.03-0.56,0.04-0.72h-0.05l-2.21,6.71H43.72z M57.22,9.63c0,0.55-0.07,1.03-0.22,1.45 c-0.14,0.42-0.36,0.78-0.64,1.07c-0.28,0.29-0.61,0.51-1.01,0.66c-0.39,0.15-0.83,0.22-1.32,0.22c-0.46,0-0.88-0.07-1.27-0.22 c-0.38-0.15-0.72-0.37-1-0.66c-0.28-0.29-0.5-0.65-0.66-1.07c-0.15-0.42-0.23-0.91-0.23-1.45c0-0.73,0.13-1.34,0.39-1.85 c0.26-0.5,0.62-0.89,1.1-1.15s1.04-0.39,1.71-0.39c0.61,0,1.16,0.13,1.63,0.39c0.48,0.26,0.85,0.64,1.12,1.15 C57.09,8.29,57.22,8.91,57.22,9.63z M52.69,9.63c0,0.43,0.05,0.79,0.14,1.08c0.09,0.29,0.24,0.51,0.44,0.66 c0.2,0.15,0.46,0.22,0.78,0.22c0.32,0,0.57-0.07,0.77-0.22c0.2-0.15,0.34-0.37,0.43-0.66c0.09-0.29,0.14-0.65,0.14-1.08 c0-0.43-0.05-0.79-0.14-1.08c-0.09-0.29-0.23-0.51-0.43-0.65c-0.2-0.14-0.46-0.22-0.78-0.22c-0.47,0-0.82,0.16-1.03,0.49 C52.8,8.5,52.69,8.98,52.69,9.63z M63.27,10.97c0,0.45-0.11,0.82-0.32,1.13c-0.21,0.3-0.52,0.54-0.93,0.7 c-0.41,0.16-0.93,0.23-1.55,0.23c-0.46,0-0.85-0.03-1.18-0.09c-0.32-0.06-0.65-0.16-0.98-0.29v-1.48c0.36,0.16,0.74,0.29,1.14,0.4 c0.41,0.1,0.77,0.15,1.08,0.15c0.35,0,0.6-0.05,0.74-0.15c0.15-0.11,0.23-0.24,0.23-0.41c0-0.11-0.03-0.21-0.09-0.29 c-0.06-0.09-0.19-0.19-0.39-0.3c-0.2-0.11-0.51-0.26-0.94-0.44c-0.41-0.17-0.75-0.35-1.01-0.52c-0.26-0.18-0.46-0.38-0.59-0.62 c-0.12-0.24-0.19-0.55-0.19-0.92c0-0.61,0.23-1.06,0.7-1.37c0.47-0.31,1.1-0.46,1.89-0.46c0.41,0,0.79,0.04,1.16,0.12 c0.37,0.08,0.75,0.21,1.14,0.39l-0.54,1.29c-0.32-0.14-0.63-0.26-0.92-0.35c-0.29-0.09-0.58-0.13-0.87-0.13 c-0.26,0-0.46,0.04-0.59,0.11c-0.13,0.07-0.2,0.18-0.2,0.32c0,0.11,0.03,0.2,0.1,0.28c0.07,0.08,0.2,0.17,0.4,0.28 c0.2,0.1,0.49,0.22,0.87,0.38c0.37,0.15,0.69,0.31,0.97,0.48c0.27,0.16,0.48,0.37,0.63,0.62C63.2,10.27,63.27,10.59,63.27,10.97z  M67.42,11.61c0.2,0,0.38-0.02,0.57-0.06c0.19-0.04,0.37-0.09,0.56-0.15v1.33c-0.19,0.09-0.43,0.16-0.71,0.21 c-0.28,0.06-0.59,0.09-0.93,0.09c-0.39,0-0.74-0.06-1.05-0.19c-0.31-0.13-0.55-0.35-0.73-0.66c-0.18-0.32-0.26-0.76-0.26-1.32V7.71 H64V6.95l0.98-0.6l0.52-1.38h1.14v1.39h1.83v1.34h-1.83v3.16c0,0.25,0.07,0.44,0.21,0.56C67,11.55,67.19,11.61,67.42,11.61z  M74.92,12.92h-1.79V4.35h4.91v1.49h-3.12v2.21h2.91v1.48h-2.91V12.92z M81.37,12.92h-1.79V3.8h1.79V12.92z M85.95,6.25 c0.61,0,1.13,0.12,1.56,0.35c0.44,0.23,0.78,0.57,1.01,1.01c0.24,0.44,0.36,0.98,0.36,1.62v0.87h-4.22c0.02,0.5,0.17,0.9,0.45,1.19 c0.29,0.29,0.68,0.43,1.18,0.43c0.42,0,0.8-0.04,1.15-0.13c0.35-0.09,0.71-0.21,1.07-0.39v1.38c-0.32,0.16-0.66,0.28-1.02,0.35 c-0.35,0.07-0.78,0.11-1.28,0.11c-0.66,0-1.24-0.12-1.75-0.36c-0.5-0.24-0.9-0.61-1.19-1.11c-0.29-0.5-0.43-1.12-0.43-1.88 c0-0.77,0.13-1.4,0.39-1.91c0.26-0.51,0.62-0.89,1.09-1.15C84.79,6.37,85.33,6.25,85.95,6.25z M85.96,7.52 c-0.35,0-0.64,0.11-0.87,0.33c-0.23,0.22-0.36,0.57-0.39,1.05h2.51c0-0.27-0.05-0.5-0.15-0.71c-0.09-0.21-0.23-0.37-0.41-0.49 C86.48,7.58,86.25,7.52,85.96,7.52z M91.68,9.57l-2.11-3.21h2.03l1.27,2.09l1.28-2.09h2.03l-2.13,3.21l2.23,3.35h-2.03l-1.38-2.24 l-1.38,2.24h-2.03L91.68,9.57z M99.07,6.37v6.55h-1.79V6.37H99.07z M98.17,3.8c0.27,0,0.49,0.06,0.69,0.19 c0.19,0.12,0.29,0.35,0.29,0.69c0,0.33-0.1,0.56-0.29,0.69c-0.19,0.12-0.42,0.19-0.69,0.19c-0.27,0-0.5-0.06-0.69-0.19 C97.3,5.24,97.2,5.01,97.2,4.67c0-0.34,0.09-0.56,0.28-0.69C97.67,3.86,97.91,3.8,98.17,3.8z M102.73,3.8v2.12 c0,0.25-0.01,0.49-0.02,0.73c-0.01,0.24-0.03,0.43-0.05,0.56h0.07c0.17-0.27,0.41-0.5,0.7-0.69c0.3-0.19,0.68-0.29,1.15-0.29 c0.73,0,1.33,0.29,1.79,0.86s0.69,1.42,0.69,2.53c0,0.75-0.11,1.37-0.32,1.88c-0.21,0.5-0.51,0.88-0.89,1.14 c-0.38,0.25-0.82,0.38-1.32,0.38c-0.48,0-0.86-0.09-1.14-0.26c-0.28-0.17-0.5-0.37-0.67-0.58h-0.12l-0.3,0.72h-1.37V3.8H102.73z  M104.02,7.67c-0.31,0-0.56,0.06-0.74,0.19c-0.18,0.13-0.32,0.32-0.4,0.58c-0.08,0.26-0.13,0.58-0.13,0.98v0.19 c0,0.64,0.09,1.12,0.28,1.46c0.19,0.34,0.53,0.5,1.03,0.5c0.37,0,0.66-0.17,0.87-0.51c0.22-0.34,0.33-0.83,0.33-1.47 c0-0.64-0.11-1.12-0.33-1.45C104.69,7.84,104.4,7.67,104.02,7.67z M110.33,12.92h-1.79V3.8h1.79V12.92z M114.91,6.25 c0.61,0,1.13,0.12,1.57,0.35c0.44,0.23,0.78,0.57,1.01,1.01c0.24,0.44,0.36,0.98,0.36,1.62v0.87h-4.22c0.02,0.5,0.17,0.9,0.45,1.19 c0.29,0.29,0.68,0.43,1.18,0.43c0.42,0,0.8-0.04,1.15-0.13c0.35-0.09,0.71-0.21,1.07-0.39v1.38c-0.32,0.16-0.66,0.28-1.02,0.35 c-0.35,0.07-0.78,0.11-1.28,0.11c-0.66,0-1.24-0.12-1.75-0.36c-0.5-0.24-0.9-0.61-1.19-1.11c-0.28-0.5-0.43-1.12-0.43-1.88 c0-0.77,0.13-1.4,0.39-1.91c0.26-0.51,0.62-0.89,1.09-1.15C113.75,6.37,114.29,6.25,114.91,6.25z M114.92,7.52 c-0.35,0-0.64,0.11-0.87,0.33c-0.23,0.22-0.36,0.57-0.39,1.05h2.51c0-0.27-0.05-0.5-0.15-0.71c-0.09-0.21-0.23-0.37-0.41-0.49 C115.43,7.58,115.2,7.52,114.92,7.52z M125.2,4.23c0.46,0,0.87,0.07,1.23,0.22c0.36,0.14,0.64,0.36,0.85,0.63 c0.21,0.28,0.32,0.62,0.32,1.01c0,0.55-0.16,1.01-0.49,1.39c-0.32,0.38-0.73,0.7-1.22,0.98l1.66,1.62c0.16-0.27,0.3-0.55,0.42-0.86 c0.12-0.3,0.22-0.6,0.31-0.91h1.86c-0.12,0.45-0.3,0.93-0.53,1.44c-0.23,0.51-0.53,0.99-0.89,1.44l1.76,1.72h-2.21l-0.67-0.66 c-0.23,0.16-0.48,0.3-0.74,0.42c-0.26,0.12-0.54,0.21-0.84,0.27c-0.3,0.06-0.61,0.09-0.94,0.09c-0.65,0-1.21-0.1-1.67-0.3 c-0.46-0.2-0.82-0.49-1.07-0.85c-0.25-0.37-0.37-0.79-0.37-1.28c0-0.41,0.06-0.75,0.19-1.04c0.12-0.29,0.3-0.55,0.54-0.77 c0.23-0.22,0.51-0.43,0.84-0.62c-0.21-0.24-0.37-0.47-0.5-0.68c-0.12-0.21-0.21-0.42-0.26-0.63c-0.05-0.21-0.08-0.43-0.08-0.66 c0-0.41,0.1-0.76,0.32-1.05c0.21-0.3,0.51-0.53,0.88-0.69C124.27,4.31,124.71,4.23,125.2,4.23z M124.57,9.25 c-0.15,0.11-0.28,0.23-0.39,0.35c-0.11,0.12-0.19,0.25-0.25,0.39c-0.06,0.14-0.09,0.29-0.09,0.45c0,0.34,0.13,0.61,0.39,0.81 c0.26,0.2,0.58,0.29,0.96,0.29c0.26,0,0.5-0.03,0.72-0.09c0.22-0.06,0.43-0.15,0.61-0.26L124.57,9.25z M125.19,5.61 c-0.2,0-0.39,0.05-0.57,0.15c-0.18,0.1-0.27,0.29-0.27,0.57c0,0.2,0.05,0.39,0.15,0.57c0.1,0.18,0.24,0.37,0.4,0.56 c0.34-0.18,0.59-0.37,0.77-0.55c0.18-0.19,0.27-0.4,0.27-0.64s-0.08-0.41-0.25-0.51C125.54,5.67,125.37,5.61,125.19,5.61z  M45.33,30.92l-0.62-2.04h-3.12l-0.62,2.04h-1.96l3.02-8.6h2.22l3.04,8.6H45.33z M44.28,27.36l-0.62-1.99 c-0.04-0.13-0.09-0.3-0.16-0.51c-0.06-0.21-0.13-0.42-0.19-0.64c-0.06-0.22-0.11-0.41-0.15-0.57c-0.04,0.16-0.09,0.36-0.16,0.6 c-0.07,0.23-0.13,0.46-0.19,0.67c-0.06,0.21-0.11,0.36-0.13,0.45l-0.62,1.99H44.28z M51.86,25.71h-1.55v5.21h-1.79v-5.21h-0.98 v-0.86l0.98-0.48v-0.48c0-0.56,0.09-0.99,0.28-1.3c0.19-0.31,0.46-0.53,0.8-0.66c0.35-0.13,0.76-0.19,1.23-0.19 c0.35,0,0.66,0.03,0.95,0.09c0.29,0.05,0.52,0.12,0.7,0.19l-0.46,1.31c-0.14-0.04-0.29-0.08-0.45-0.12 c-0.16-0.04-0.34-0.05-0.55-0.05c-0.25,0-0.43,0.08-0.55,0.23c-0.11,0.15-0.17,0.34-0.17,0.57v0.41h1.55V25.71z M56.5,25.71h-1.55 v5.21h-1.79v-5.21h-0.98v-0.86l0.98-0.48v-0.48c0-0.56,0.09-0.99,0.28-1.3c0.19-0.31,0.46-0.53,0.8-0.66 c0.35-0.13,0.76-0.19,1.23-0.19c0.35,0,0.66,0.03,0.95,0.09c0.29,0.05,0.52,0.12,0.7,0.19l-0.46,1.31 c-0.14-0.04-0.29-0.08-0.45-0.12c-0.16-0.04-0.34-0.05-0.55-0.05c-0.25,0-0.43,0.08-0.55,0.23c-0.11,0.15-0.17,0.34-0.17,0.57v0.41 h1.55V25.71z M63.48,27.63c0,0.55-0.07,1.03-0.22,1.45c-0.14,0.42-0.36,0.78-0.64,1.07c-0.28,0.29-0.61,0.51-1.01,0.66 c-0.39,0.15-0.83,0.22-1.32,0.22c-0.46,0-0.88-0.07-1.27-0.22c-0.38-0.15-0.72-0.37-1-0.66c-0.28-0.29-0.5-0.65-0.66-1.07 c-0.15-0.42-0.23-0.91-0.23-1.45c0-0.73,0.13-1.34,0.39-1.85c0.26-0.5,0.62-0.89,1.1-1.15c0.48-0.26,1.04-0.39,1.71-0.39 c0.61,0,1.16,0.13,1.63,0.39c0.48,0.26,0.85,0.64,1.12,1.15C63.34,26.29,63.48,26.91,63.48,27.63z M58.95,27.63 c0,0.43,0.05,0.79,0.14,1.08c0.09,0.29,0.24,0.51,0.44,0.66c0.2,0.15,0.46,0.22,0.78,0.22c0.32,0,0.57-0.07,0.77-0.22 c0.2-0.15,0.34-0.37,0.43-0.66c0.09-0.29,0.14-0.65,0.14-1.08c0-0.43-0.05-0.79-0.14-1.08c-0.09-0.29-0.23-0.51-0.43-0.65 c-0.2-0.14-0.46-0.22-0.78-0.22c-0.47,0-0.82,0.16-1.03,0.49C59.06,26.5,58.95,26.98,58.95,27.63z M68.61,24.25 c0.09,0,0.19,0.01,0.31,0.02c0.12,0.01,0.22,0.02,0.29,0.04l-0.13,1.68c-0.06-0.02-0.14-0.03-0.25-0.04 c-0.11-0.01-0.2-0.02-0.28-0.02c-0.23,0-0.46,0.03-0.67,0.09c-0.21,0.06-0.41,0.15-0.58,0.29c-0.17,0.13-0.31,0.3-0.41,0.52 c-0.1,0.21-0.15,0.47-0.15,0.78v3.33h-1.79v-6.55h1.35l0.26,1.1h0.09c0.13-0.22,0.29-0.43,0.48-0.61c0.2-0.19,0.42-0.34,0.66-0.45 C68.06,24.3,68.33,24.25,68.61,24.25z M72.48,31.04c-0.73,0-1.33-0.29-1.79-0.86c-0.46-0.57-0.69-1.42-0.69-2.53 c0-1.12,0.23-1.97,0.7-2.54c0.46-0.58,1.07-0.87,1.82-0.87c0.31,0,0.59,0.04,0.83,0.13c0.24,0.09,0.44,0.2,0.62,0.35 c0.18,0.14,0.32,0.31,0.45,0.49h0.06c-0.02-0.12-0.05-0.31-0.09-0.55c-0.03-0.25-0.05-0.5-0.05-0.76v-2.1h1.79v9.12h-1.37 l-0.35-0.85h-0.08c-0.11,0.18-0.26,0.34-0.43,0.49c-0.17,0.14-0.37,0.26-0.6,0.35C73.07,30.99,72.8,31.04,72.48,31.04z M73.11,29.61 c0.49,0,0.83-0.14,1.03-0.43c0.2-0.29,0.31-0.73,0.32-1.32v-0.19c0-0.64-0.1-1.12-0.29-1.46c-0.2-0.34-0.56-0.51-1.09-0.51 c-0.39,0-0.7,0.17-0.93,0.51c-0.22,0.34-0.33,0.83-0.33,1.47c0,0.64,0.11,1.12,0.33,1.45C72.38,29.45,72.7,29.61,73.11,29.61z  M80.68,24.23c0.88,0,1.55,0.19,2.02,0.57c0.47,0.38,0.7,0.96,0.7,1.75v4.37h-1.25l-0.35-0.89h-0.05c-0.19,0.23-0.38,0.43-0.57,0.57 c-0.2,0.15-0.42,0.26-0.67,0.33c-0.25,0.07-0.56,0.11-0.93,0.11c-0.39,0-0.73-0.07-1.04-0.22c-0.3-0.15-0.54-0.38-0.72-0.68 c-0.18-0.31-0.26-0.7-0.26-1.17c0-0.7,0.24-1.21,0.73-1.54c0.49-0.33,1.22-0.52,2.2-0.55l1.14-0.04v-0.29c0-0.34-0.09-0.6-0.27-0.76 c-0.18-0.16-0.43-0.24-0.75-0.24c-0.32,0-0.63,0.04-0.93,0.13c-0.3,0.09-0.61,0.2-0.91,0.34l-0.59-1.21 c0.35-0.18,0.74-0.33,1.17-0.43C79.78,24.29,80.22,24.23,80.68,24.23z M81.63,27.88l-0.69,0.02c-0.58,0.02-0.98,0.12-1.21,0.31 c-0.22,0.19-0.33,0.44-0.33,0.76c0,0.27,0.08,0.47,0.24,0.59c0.16,0.11,0.37,0.17,0.63,0.17c0.38,0,0.71-0.11,0.97-0.34 c0.27-0.23,0.4-0.55,0.4-0.97V27.88z M87.04,21.8v2.12c0,0.25-0.01,0.49-0.02,0.73c-0.01,0.24-0.03,0.43-0.05,0.56h0.07 c0.17-0.27,0.41-0.5,0.7-0.69c0.3-0.19,0.68-0.29,1.15-0.29c0.73,0,1.33,0.29,1.79,0.86s0.69,1.42,0.69,2.53 c0,0.75-0.11,1.37-0.32,1.88c-0.21,0.5-0.51,0.88-0.88,1.14c-0.38,0.25-0.82,0.38-1.32,0.38c-0.48,0-0.86-0.09-1.14-0.26 c-0.28-0.17-0.5-0.37-0.67-0.58h-0.12l-0.3,0.72h-1.37V21.8H87.04z M88.33,25.67c-0.31,0-0.56,0.06-0.74,0.19s-0.32,0.32-0.4,0.58 c-0.08,0.26-0.13,0.58-0.13,0.98v0.19c0,0.64,0.09,1.12,0.28,1.46c0.19,0.34,0.53,0.5,1.03,0.5c0.37,0,0.66-0.17,0.87-0.51 c0.22-0.34,0.33-0.83,0.33-1.47c0-0.64-0.11-1.12-0.33-1.45C89,25.84,88.7,25.67,88.33,25.67z M94.64,30.92h-1.79V21.8h1.79V30.92z  M99.22,24.25c0.61,0,1.13,0.12,1.56,0.35c0.44,0.23,0.78,0.57,1.01,1.01c0.24,0.44,0.36,0.98,0.36,1.62v0.87h-4.22 c0.02,0.5,0.17,0.9,0.45,1.19c0.29,0.29,0.68,0.43,1.18,0.43c0.42,0,0.8-0.04,1.15-0.13c0.35-0.09,0.71-0.21,1.07-0.39v1.38 c-0.32,0.16-0.66,0.28-1.02,0.35c-0.35,0.07-0.78,0.11-1.28,0.11c-0.66,0-1.24-0.12-1.75-0.36c-0.5-0.24-0.9-0.61-1.19-1.11 c-0.29-0.5-0.43-1.12-0.43-1.88c0-0.77,0.13-1.4,0.39-1.91c0.26-0.51,0.62-0.89,1.09-1.15C98.06,24.37,98.6,24.25,99.22,24.25z  M99.23,25.52c-0.35,0-0.64,0.11-0.87,0.33c-0.23,0.22-0.36,0.57-0.39,1.05h2.51c0-0.27-0.05-0.5-0.15-0.71 c-0.09-0.21-0.23-0.37-0.41-0.49C99.74,25.58,99.51,25.52,99.23,25.52z M109.6,22.35c1.11,0,1.91,0.24,2.42,0.71 c0.51,0.47,0.76,1.12,0.76,1.96c0,0.38-0.06,0.73-0.17,1.08c-0.11,0.34-0.3,0.64-0.56,0.91c-0.25,0.27-0.59,0.48-1.02,0.63 c-0.43,0.15-0.95,0.23-1.58,0.23h-0.78v3.05h-1.82v-8.57H109.6z M109.51,23.84h-0.83v2.54h0.6c0.34,0,0.64-0.04,0.89-0.13 c0.25-0.09,0.44-0.23,0.58-0.42c0.14-0.19,0.2-0.44,0.2-0.74c0-0.42-0.12-0.73-0.35-0.94C110.36,23.94,110,23.84,109.51,23.84z  M117.91,24.25c0.09,0,0.19,0.01,0.31,0.02c0.12,0.01,0.22,0.02,0.29,0.04l-0.13,1.68c-0.06-0.02-0.14-0.03-0.25-0.04 c-0.11-0.01-0.2-0.02-0.28-0.02c-0.23,0-0.46,0.03-0.67,0.09c-0.21,0.06-0.41,0.15-0.58,0.29c-0.17,0.13-0.31,0.3-0.41,0.52 c-0.1,0.21-0.15,0.47-0.15,0.78v3.33h-1.79v-6.55h1.35l0.26,1.1h0.09c0.13-0.22,0.29-0.43,0.48-0.61c0.2-0.19,0.42-0.34,0.66-0.45 C117.36,24.3,117.63,24.25,117.91,24.25z M121.49,24.37v6.55h-1.79v-6.55H121.49z M120.6,21.8c0.26,0,0.49,0.06,0.68,0.19 c0.19,0.12,0.29,0.35,0.29,0.69c0,0.33-0.1,0.56-0.29,0.69c-0.19,0.12-0.42,0.19-0.68,0.19c-0.27,0-0.5-0.06-0.69-0.19 c-0.19-0.13-0.28-0.36-0.28-0.69c0-0.34,0.09-0.56,0.28-0.69C120.1,21.86,120.33,21.8,120.6,21.8z M126.04,31.04 c-0.65,0-1.2-0.12-1.66-0.35c-0.46-0.24-0.81-0.61-1.04-1.1c-0.24-0.5-0.36-1.13-0.36-1.9c0-0.8,0.13-1.45,0.4-1.96 c0.27-0.51,0.65-0.88,1.13-1.12c0.48-0.24,1.04-0.36,1.68-0.36c0.45,0,0.84,0.04,1.17,0.13c0.33,0.09,0.62,0.19,0.87,0.31 l-0.53,1.38c-0.28-0.11-0.54-0.21-0.79-0.28c-0.24-0.07-0.48-0.11-0.73-0.11c-0.31,0-0.57,0.07-0.78,0.22 c-0.21,0.14-0.36,0.36-0.46,0.66c-0.1,0.29-0.15,0.66-0.15,1.1c0,0.43,0.06,0.79,0.16,1.08c0.11,0.29,0.27,0.5,0.48,0.64 c0.21,0.14,0.46,0.21,0.75,0.21c0.37,0,0.7-0.05,0.99-0.15c0.29-0.1,0.57-0.24,0.84-0.42v1.53c-0.27,0.17-0.56,0.29-0.86,0.37 C126.87,31,126.49,31.04,126.04,31.04z M131.34,24.37v6.55h-1.79v-6.55H131.34z M130.45,21.8c0.27,0,0.49,0.06,0.69,0.19 c0.19,0.12,0.29,0.35,0.29,0.69c0,0.33-0.1,0.56-0.29,0.69c-0.19,0.12-0.42,0.19-0.69,0.19c-0.27,0-0.5-0.06-0.69-0.19 c-0.19-0.13-0.28-0.36-0.28-0.69c0-0.34,0.09-0.56,0.28-0.69C129.95,21.86,130.18,21.8,130.45,21.8z M136.94,24.25 c0.7,0,1.26,0.19,1.69,0.57c0.43,0.38,0.64,0.99,0.64,1.83v4.27h-1.79v-3.83c0-0.47-0.09-0.82-0.26-1.06 c-0.17-0.24-0.43-0.36-0.8-0.36c-0.55,0-0.92,0.19-1.12,0.56c-0.2,0.37-0.3,0.91-0.3,1.61v3.08h-1.79v-6.55h1.37l0.24,0.84h0.1 c0.14-0.23,0.31-0.41,0.52-0.55c0.21-0.14,0.44-0.24,0.7-0.31C136.4,24.28,136.67,24.25,136.94,24.25z M143.02,33.8 c-0.91,0-1.61-0.16-2.1-0.48c-0.48-0.32-0.72-0.76-0.72-1.34c0-0.39,0.12-0.72,0.37-0.99c0.25-0.27,0.61-0.46,1.08-0.57 c-0.18-0.08-0.34-0.21-0.48-0.38c-0.14-0.18-0.21-0.37-0.21-0.57c0-0.25,0.07-0.46,0.22-0.62c0.14-0.17,0.35-0.33,0.63-0.49 c-0.34-0.15-0.62-0.39-0.82-0.71c-0.2-0.33-0.3-0.71-0.3-1.16c0-0.48,0.1-0.88,0.31-1.21c0.21-0.34,0.52-0.59,0.91-0.77 c0.4-0.18,0.89-0.26,1.46-0.26c0.12,0,0.26,0.01,0.42,0.02c0.16,0.02,0.31,0.03,0.44,0.05c0.14,0.02,0.23,0.04,0.28,0.05h2.29v0.91 l-1.03,0.26c0.09,0.14,0.16,0.3,0.21,0.46c0.05,0.16,0.07,0.34,0.07,0.52c0,0.7-0.25,1.25-0.74,1.65c-0.49,0.39-1.17,0.59-2.04,0.59 c-0.21-0.01-0.4-0.03-0.59-0.05c-0.09,0.07-0.16,0.14-0.21,0.22c-0.05,0.08-0.07,0.16-0.07,0.25c0,0.09,0.04,0.16,0.11,0.22 c0.07,0.05,0.18,0.1,0.33,0.13c0.15,0.03,0.33,0.04,0.55,0.04h1.11c0.72,0,1.26,0.15,1.64,0.46c0.38,0.31,0.57,0.76,0.57,1.36 c0,0.77-0.32,1.36-0.96,1.78C145.13,33.59,144.22,33.8,143.02,33.8z M143.1,32.64c0.43,0,0.79-0.04,1.09-0.12 c0.31-0.08,0.55-0.19,0.71-0.34c0.16-0.14,0.25-0.32,0.25-0.52c0-0.16-0.05-0.29-0.15-0.39c-0.09-0.09-0.24-0.16-0.43-0.2 c-0.19-0.04-0.44-0.06-0.74-0.06h-0.93c-0.22,0-0.42,0.04-0.59,0.11c-0.17,0.07-0.31,0.17-0.41,0.29c-0.1,0.13-0.15,0.28-0.15,0.45 c0,0.25,0.12,0.44,0.35,0.58C142.34,32.57,142.67,32.64,143.1,32.64z M143.39,27.67c0.34,0,0.58-0.1,0.74-0.31s0.24-0.49,0.24-0.84 c0-0.39-0.08-0.69-0.25-0.88c-0.16-0.2-0.4-0.3-0.73-0.3c-0.33,0-0.57,0.1-0.74,0.3c-0.16,0.2-0.25,0.49-0.25,0.88 c0,0.36,0.08,0.64,0.24,0.84C142.81,27.56,143.05,27.67,143.39,27.67z"></path></svg>